Coordinates
version=1
nRows=5
nColumns=42
inDegrees=yes

Units are S.I. units (second, meters, Newtons, ...)
If the header above contains a line with 'inDegrees', this indicates whether rotational values are in degrees (yes) or radians (no).

endheader
time	pelvis_tilt	pelvis_list	pelvis_rotation	pelvis_tx	pelvis_ty	pelvis_tz	hip_flexion_r	hip_adduction_r	hip_rotation_r	knee_angle_r	knee_adduction_r	knee_angle_r_beta	ankle_angle_r	subtalar_angle_r	mtp_angle_r	hip_flexion_l	hip_adduction_l	hip_rotation_l	knee_angle_l	knee_adduction_l	knee_angle_l_beta	ankle_angle_l	subtalar_angle_l	mtp_angle_l	lumbar_extension	lumbar_bending	lumbar_rotation	arm_flex_r	arm_add_r	arm_rot_r	elbow_flex_r	pro_sup_r	wrist_flex_r	wrist_dev_r	arm_flex_l	arm_add_l	arm_rot_l	elbow_flex_l	pro_sup_l	wrist_flex_l	wrist_dev_l
      2.08000000	      4.96066769	     -4.88911631	      5.32454905	      0.51988581	      0.98454086	      0.18267219	     23.39984045	      2.69675776	     -6.42148726	     22.89182069	      7.67712029	      0.39953764	     -8.52702759	    -15.47796980	     -7.50753646	    -19.33343609	    -14.45526691	      0.07460911	     32.19656104	     13.13747448	      0.56193600	     -4.09971796	     -0.25170812	     -7.50753646	    -15.43166269	      6.31384120	     -8.50770750	    -10.11523325	     -6.29346745	    -22.55865356	     11.14275476	     90.00000001	      0.00000000	      0.00000000	     12.28165398	    -24.39907157	     -7.29173467	     51.98055850	     90.00000001	      0.00000000	      0.00000000
      2.09000000	      5.20834215	     -5.24759794	      5.25412984	      0.53592850	      0.98627108	      0.18357463	     22.95930926	      3.34093629	     -5.68391072	     24.17044777	      7.70845520	      0.42185390	     -8.59330244	    -16.14181055	     -7.50733094	    -18.21569028	    -15.21065439	     -0.43564790	     35.64344084	     12.95960068	      0.62209540	     -7.86937765	     -0.82251620	     -7.50733094	    -15.64357810	      6.79688754	     -8.16277947	     -9.64985153	     -6.44209342	    -22.59389747	     11.04667407	     90.00000001	      0.00000000	      0.00000000	     11.49653812	    -23.85160077	     -7.50610251	     51.21763322	     90.00000001	      0.00000000	      0.00000000
      2.10000000	      5.43354482	     -5.59901911	      5.17676683	      0.55169062	      0.98810825	      0.18454924	     22.38500684	      4.00960003	     -5.13460015	     25.17221532	      7.71491809	      0.43933804	     -8.26045687	    -16.60502961	     -7.50714512	    -16.85003283	    -15.96787073	     -0.88286184	     39.27818321	     12.66863060	      0.68553362	    -11.64037420	     -1.28471103	     -7.50714512	    -15.87118685	      7.24234030	     -7.79609306	     -9.12683782	     -6.57304399	    -22.61925257	     11.01895886	     90.00000001	      0.00000000	      0.00000000	     10.70316840	    -23.30931213	     -7.68556806	     50.30545082	     90.00000001	      0.00000000	      0.00000000
      2.11000000	      5.63649368	     -5.93567393	      5.16746709	      0.56722916	      0.99004757	      0.18554710	     21.66608238	      4.68727395	     -4.80620714	     25.86839277	      7.64643907	      0.45148863	     -7.54766341	    -16.86305747	     -7.50705557	    -15.28086074	    -16.74413784	     -1.02476310	     42.94692734	     12.40676235	      0.74956529	    -15.05172812	     -1.70900054	     -7.50705557	    -16.07145750	      7.65014499	     -7.49510220	     -8.60785526	     -6.68262216	    -22.61473384	     11.12316391	     90.00000001	      0.00000000	      0.00000000	      9.84042964	    -22.80593237	     -7.69122799	     49.44709275	     90.00000001	      0.00000000	      0.00000000
      2.12000000	      5.77909737	     -6.15134494	      4.95158079	      0.58237242	      0.99190967	      0.18659767	     20.99037374	      5.27821652	     -4.55264970	     26.57428499	      7.51328011	      0.46380877	     -6.95510265	    -16.81232038	     -7.50674974	    -13.51616128	    -17.29320210	     -1.86839571	     46.77134094	     11.57296251	      0.81631389	    -18.03538207	     -2.21945142	     -7.50674974	    -16.25906595	      7.87235076	     -6.95894000	     -8.01637606	     -6.83362215	    -22.72420024	     11.17784916	     90.00000001	      0.00000000	      0.00000000	      9.35409361	    -22.11815001	     -7.95198933	     47.86001213	     90.00000001	      0.00000000	      0.00000000
